<?xml version="1.0" encoding="UTF-8" standalone="no"?>
<!DOCTYPE svg PUBLIC "-//W3C//DTD SVG 1.1//EN" "http://www.w3.org/Graphics/SVG/1.1/DTD/svg11.dtd">
<svg width="100%" height="100%" viewBox="0 0 498 498" version="1.1" xmlns="http://www.w3.org/2000/svg" xmlns:xlink="http://www.w3.org/1999/xlink" xml:space="preserve" xmlns:serif="http://www.serif.com/" style="fill-rule:evenodd;clip-rule:evenodd;stroke-linejoin:round;stroke-miterlimit:2;">
    <g transform="matrix(1,0,0,1,-10542.2,-155.066)">
        <g transform="matrix(1.38393,0,0,2.12148,6721.62,118)">
            <g id="Gear-Compass-Eye" serif:id="Gear Compass Eye" transform="matrix(3.4565,0,0,2.25481,-29389.4,-4324.07)">
                <path d="M9360.84,1926.01C9355.85,1925.28 9350.78,1925.28 9345.8,1926.01L9343.23,1933.9C9338.44,1935.01 9333.86,1936.91 9329.68,1939.51L9322.29,1935.74C9318.24,1938.75 9314.66,1942.34 9311.65,1946.38L9315.42,1953.78C9312.81,1957.95 9310.92,1962.53 9309.81,1967.33L9301.91,1969.89C9301.18,1974.88 9301.18,1979.94 9301.91,1984.93L9309.81,1987.5C9310.92,1992.29 9312.81,1996.87 9315.42,2001.05L9311.65,2008.44C9314.66,2012.48 9318.24,2016.07 9322.29,2019.08L9329.68,2015.31C9333.86,2017.91 9338.44,2019.81 9343.23,2020.92L9345.8,2028.82C9350.78,2029.55 9355.85,2029.55 9360.84,2028.82L9363.4,2020.92C9368.2,2019.81 9372.78,2017.91 9376.95,2015.31L9384.35,2019.08C9388.39,2016.07 9391.97,2012.48 9394.99,2008.44L9391.22,2001.05C9393.82,1996.87 9395.72,1992.29 9396.83,1987.5L9404.72,1984.93C9405.45,1979.94 9405.45,1974.88 9404.72,1969.89L9396.83,1967.33C9395.72,1962.53 9393.82,1957.95 9391.22,1953.78L9394.99,1946.38C9391.97,1942.34 9388.39,1938.75 9384.35,1935.74L9376.95,1939.51C9372.78,1936.91 9368.2,1935.01 9363.4,1933.9L9360.84,1926.01ZM9374.08,1956.64L9361.62,1985.72L9332.55,1998.18L9345.01,1969.1L9374.08,1956.64Z"/>
            </g>
        </g>
    </g>
</svg>
