<?xml version="1.0" encoding="UTF-8" standalone="no"?>
<!DOCTYPE svg PUBLIC "-//W3C//DTD SVG 1.1//EN" "http://www.w3.org/Graphics/SVG/1.1/DTD/svg11.dtd">
<svg width="100%" height="100%" viewBox="0 0 501 501" version="1.1" xmlns="http://www.w3.org/2000/svg" xmlns:xlink="http://www.w3.org/1999/xlink" xml:space="preserve" xmlns:serif="http://www.serif.com/" style="fill-rule:evenodd;clip-rule:evenodd;stroke-linejoin:round;stroke-miterlimit:2;">
    <g transform="matrix(1,0,0,1,-11134.9,-151.837)">
        <g transform="matrix(1.38393,0,0,2.12148,6721.62,118)">
            <g transform="matrix(0.722654,0,0,0.471416,-1098.26,-108.495)">
                <path d="M6207.22,265.154C6191.11,263.589 6174.89,263.589 6158.78,265.154L6148.14,286.514C6131.42,289.073 6115.03,293.463 6099.27,299.607L6079.37,286.433C6064.64,293.131 6050.59,301.24 6037.43,310.648L6038.89,334.472C6025.69,345.047 6013.69,357.042 6003.11,370.242L5979.29,368.785C5969.88,381.95 5961.77,395.996 5955.08,410.726L5968.25,430.63C5962.11,446.388 5957.72,462.774 5955.16,479.492L5933.8,490.142C5932.23,506.248 5932.23,522.467 5933.8,538.572L5955.16,549.222C5957.72,565.941 5962.11,582.327 5968.25,598.085L5955.08,617.988C5961.77,632.718 5969.88,646.765 5979.29,659.93L6003.11,658.473C6013.69,671.672 6025.69,683.668 6038.89,694.243L6037.43,718.066C6050.59,727.474 6064.64,735.584 6079.37,742.281L6099.27,729.108C6115.03,735.251 6131.42,739.642 6148.14,742.2L6158.78,763.561C6174.89,765.126 6191.11,765.126 6207.22,763.561L6217.86,742.2C6234.58,739.642 6250.97,735.251 6266.73,729.108L6286.63,742.281C6301.36,735.584 6315.41,727.474 6328.57,718.066L6327.11,694.243C6340.32,683.668 6352.31,671.672 6362.89,658.473L6386.71,659.93C6396.12,646.765 6404.23,632.718 6410.92,617.988L6397.75,598.085C6403.89,582.327 6408.28,565.941 6410.84,549.222L6432.2,538.572C6433.77,522.467 6433.77,506.248 6432.2,490.142L6410.84,479.492C6408.28,462.774 6403.89,446.388 6397.75,430.63L6410.92,410.726C6404.23,395.996 6396.12,381.95 6386.71,368.785L6362.89,370.242C6352.31,357.042 6340.32,345.047 6327.11,334.472L6328.57,310.648C6315.41,301.24 6301.36,293.131 6286.63,286.433L6266.73,299.607C6250.97,293.463 6234.58,289.073 6217.86,286.514L6207.22,265.154ZM6183,413.102C6154.04,393.112 6126.44,380.613 6104.98,377.284C6084.42,374.093 6068.21,378.773 6057.76,389.224C6047.31,399.675 6042.62,415.887 6045.82,436.446C6049.15,457.904 6061.64,485.511 6081.63,514.47C6061.64,543.429 6049.15,571.035 6045.82,592.493C6042.62,613.053 6047.31,629.264 6057.76,639.715C6068.21,650.166 6084.42,654.846 6104.98,651.656C6126.44,648.326 6154.04,635.827 6183,615.837C6211.96,635.827 6239.57,648.326 6261.03,651.656C6281.58,654.846 6297.8,650.166 6308.25,639.715C6318.7,629.264 6323.38,613.053 6320.19,592.493C6316.86,571.035 6304.36,543.429 6284.37,514.47C6304.36,485.511 6316.86,457.904 6320.19,436.446C6323.38,415.887 6318.7,399.675 6308.25,389.224C6297.8,378.773 6281.58,374.093 6261.03,377.284C6239.57,380.613 6211.96,393.112 6183,413.102ZM6103.79,543.385C6094.18,558.431 6087.11,572.791 6083.04,585.597C6080.48,593.627 6079.13,600.863 6079.53,607.035C6079.75,610.345 6080.31,613.246 6082.27,615.204C6084.23,617.162 6087.13,617.725 6090.44,617.94C6096.61,618.339 6103.84,616.99 6111.88,614.435C6124.68,610.361 6139.04,603.289 6154.09,593.679C6145.29,586.261 6136.52,578.212 6127.89,569.584C6119.26,560.956 6111.21,552.177 6103.79,543.385ZM6262.21,543.385C6254.79,552.177 6246.74,560.956 6238.11,569.584C6229.49,578.212 6220.71,586.261 6211.92,593.679C6226.96,603.289 6241.32,610.361 6254.13,614.435C6262.16,616.99 6269.39,618.339 6275.57,617.94C6278.88,617.725 6281.78,617.162 6283.74,615.204C6285.69,613.246 6286.26,610.345 6286.47,607.035C6286.87,600.863 6285.52,593.627 6282.97,585.597C6278.89,572.791 6271.82,558.431 6262.21,543.385ZM6183,456.231C6193.23,464.517 6203.51,473.774 6213.6,483.867C6223.7,493.961 6232.95,504.245 6241.24,514.47C6232.95,524.695 6223.7,534.979 6213.6,545.072C6203.51,555.166 6193.23,564.422 6183,572.709C6172.78,564.422 6162.49,555.166 6152.4,545.072C6142.31,534.979 6133.05,524.695 6124.76,514.47C6133.05,504.245 6142.31,493.961 6152.4,483.867L6152.4,483.867C6162.49,473.774 6172.78,464.517 6183,456.231ZM6183,491.389C6170.26,491.389 6159.92,501.731 6159.92,514.47C6159.92,527.208 6170.26,537.55 6183,537.55C6195.74,537.55 6206.08,527.208 6206.08,514.47C6206.08,501.731 6195.74,491.389 6183,491.389ZM6262.21,485.555C6271.82,470.508 6278.89,456.148 6282.97,443.343C6285.52,435.313 6286.87,428.077 6286.47,421.904C6286.26,418.595 6285.69,415.694 6283.74,413.736C6281.78,411.778 6278.88,411.214 6275.57,411C6269.39,410.6 6262.16,411.95 6254.13,414.504C6241.32,418.578 6226.96,425.651 6211.92,435.26C6220.71,442.679 6229.49,450.728 6238.11,459.356C6246.74,467.984 6254.79,476.762 6262.21,485.555ZM6154.09,435.26C6139.04,425.651 6124.68,418.578 6111.88,414.504C6103.84,411.95 6096.61,410.6 6090.44,411C6087.13,411.214 6084.23,411.778 6082.27,413.736C6080.31,415.694 6079.75,418.595 6079.53,421.904C6079.13,428.077 6080.48,435.313 6083.04,443.343C6087.11,456.148 6094.18,470.508 6103.79,485.555C6111.21,476.762 6119.26,467.984 6127.89,459.356L6127.89,459.356C6136.52,450.728 6145.29,442.679 6154.09,435.26Z" style="fill:rgb(255,135,1);"/>
            </g>
        </g>
    </g>
</svg>


