<?xml version="1.0" encoding="UTF-8" standalone="no"?>
<!DOCTYPE svg PUBLIC "-//W3C//DTD SVG 1.1//EN" "http://www.w3.org/Graphics/SVG/1.1/DTD/svg11.dtd">
<svg width="100%" height="100%" viewBox="0 0 501 501" version="1.1" xmlns="http://www.w3.org/2000/svg" xmlns:xlink="http://www.w3.org/1999/xlink" xml:space="preserve" xmlns:serif="http://www.serif.com/" style="fill-rule:evenodd;clip-rule:evenodd;stroke-linejoin:round;stroke-miterlimit:2;">
    <g transform="matrix(1,0,0,1,-11688.5,-150.281)">
        <g transform="matrix(1.38393,0,0,2.12148,6721.62,118)">
            <g transform="matrix(2.169,0,0,1.41493,-9641.01,-1010.44)">
                <path d="M6191.07,725.274C6185.7,724.752 6180.3,724.752 6174.93,725.274L6171.38,732.39C6165.81,733.243 6160.35,734.706 6155.1,736.753L6148.47,732.363C6143.57,734.595 6138.89,737.297 6134.5,740.431L6134.99,748.369C6130.59,751.892 6126.59,755.888 6123.07,760.286L6115.13,759.801C6111.99,764.187 6109.29,768.867 6107.06,773.775L6111.45,780.406C6109.4,785.656 6107.94,791.115 6107.09,796.686L6099.97,800.234C6099.45,805.6 6099.45,811.004 6099.97,816.37L6107.09,819.918C6107.94,825.488 6109.4,830.947 6111.45,836.198L6107.06,842.829C6109.29,847.736 6111.99,852.416 6115.13,856.803L6123.07,856.317C6126.59,860.715 6130.59,864.712 6134.99,868.235L6134.5,876.172C6138.89,879.307 6143.57,882.009 6148.47,884.24L6155.1,879.851C6160.35,881.898 6165.81,883.361 6171.38,884.213L6174.93,891.33C6180.3,891.851 6185.7,891.851 6191.07,891.33L6194.62,884.213C6200.19,883.361 6205.65,881.898 6210.9,879.851L6217.53,884.24C6222.44,882.009 6227.11,879.307 6231.5,876.172L6231.02,868.235C6235.41,864.712 6239.41,860.715 6242.93,856.317L6250.87,856.803C6254.01,852.416 6256.71,847.736 6258.94,842.829L6254.55,836.198C6256.6,830.947 6258.06,825.488 6258.91,819.918L6266.03,816.37C6266.55,811.004 6266.55,805.6 6266.03,800.234L6258.91,796.686C6258.06,791.115 6256.6,785.656 6254.55,780.406L6258.94,773.775C6256.71,768.867 6254.01,764.187 6250.87,759.801L6242.93,760.286C6239.41,755.888 6235.41,751.892 6231.02,748.369L6231.5,740.431C6227.11,737.297 6222.44,734.595 6217.53,732.363L6210.9,736.753C6205.65,734.706 6200.19,733.243 6194.62,732.39L6191.07,725.274ZM6174.66,799.96L6141.29,799.96C6136.69,799.96 6132.95,803.698 6132.95,808.302C6132.95,812.906 6136.69,816.644 6141.29,816.644L6174.66,816.644L6174.66,850.012C6174.66,854.616 6178.4,858.354 6183,858.354C6187.6,858.354 6191.34,854.616 6191.34,850.012L6191.34,816.644L6224.71,816.644C6229.31,816.644 6233.05,812.906 6233.05,808.302C6233.05,803.698 6229.31,799.96 6224.71,799.96L6191.34,799.96L6191.34,766.592C6191.34,761.988 6187.6,758.25 6183,758.25C6178.4,758.25 6174.66,761.988 6174.66,766.592L6174.66,799.96Z" style="fill:rgb(132,0,255);"/>
            </g>
        </g>
    </g>
</svg>
