<?xml version="1.0" encoding="UTF-8" standalone="no"?>
<!DOCTYPE svg PUBLIC "-//W3C//DTD SVG 1.1//EN" "http://www.w3.org/Graphics/SVG/1.1/DTD/svg11.dtd">
<svg width="100%" height="100%" viewBox="0 0 501 501" version="1.1" xmlns="http://www.w3.org/2000/svg" xmlns:xlink="http://www.w3.org/1999/xlink" xml:space="preserve" xmlns:serif="http://www.serif.com/" style="fill-rule:evenodd;clip-rule:evenodd;stroke-linejoin:round;stroke-miterlimit:2;">
    <g transform="matrix(1,0,0,1,-12240.8,-151.837)">
        <g transform="matrix(1.38393,0,0,2.12148,6721.62,118)">
            <g transform="matrix(2.169,0,0,1.41493,-9241.91,-177.729)">
                <path d="M6191.07,137.274C6185.7,136.752 6180.3,136.752 6174.93,137.274L6171.38,144.39C6165.81,145.243 6160.35,146.706 6155.1,148.753L6148.47,144.363C6143.57,146.595 6138.89,149.297 6134.5,152.431L6134.99,160.369C6130.59,163.892 6126.59,167.888 6123.07,172.286L6115.13,171.801C6111.99,176.187 6109.29,180.867 6107.06,185.775L6111.45,192.406C6109.4,197.656 6107.94,203.115 6107.09,208.686L6099.97,212.234C6099.45,217.6 6099.45,223.004 6099.97,228.37L6107.09,231.918C6107.94,237.488 6109.4,242.947 6111.45,248.198L6107.06,254.829C6109.29,259.736 6111.99,264.416 6115.13,268.803L6123.07,268.317C6126.59,272.715 6130.59,276.712 6134.99,280.235L6134.5,288.172C6138.89,291.307 6143.57,294.009 6148.47,296.24L6155.1,291.851C6160.35,293.898 6165.81,295.361 6171.38,296.213L6174.93,303.33C6180.3,303.851 6185.7,303.851 6191.07,303.33L6194.62,296.213C6200.19,295.361 6205.65,293.898 6210.9,291.851L6217.53,296.24C6222.44,294.009 6227.11,291.307 6231.5,288.172L6231.02,280.235C6235.41,276.712 6239.41,272.715 6242.93,268.317L6250.87,268.803C6254.01,264.416 6256.71,259.736 6258.94,254.829L6254.55,248.198C6256.6,242.947 6258.06,237.488 6258.91,231.918L6266.03,228.37C6266.55,223.004 6266.55,217.6 6266.03,212.234L6258.91,208.686C6258.06,203.115 6256.6,197.656 6254.55,192.406L6258.94,185.775C6256.71,180.867 6254.01,176.187 6250.87,171.801L6242.93,172.286C6239.41,167.888 6235.41,163.892 6231.02,160.369L6231.5,152.431C6227.11,149.297 6222.44,146.595 6217.53,144.363L6210.9,148.753C6205.65,146.706 6200.19,145.243 6194.62,144.39L6191.07,137.274ZM6231.87,243.961C6235.45,236.582 6237.3,228.488 6237.3,220.289C6237.3,195.776 6220.7,174.159 6197.02,167.835C6196.92,167.806 6196.83,167.781 6196.73,167.758C6179.54,163.267 6161.19,167.501 6147.7,179.073C6147.44,179.249 6147.21,179.454 6147,179.682C6135.37,189.979 6128.7,204.791 6128.7,220.327C6128.7,250.102 6153.2,274.603 6182.97,274.603C6182.98,274.603 6182.99,274.603 6183,274.603C6183.38,274.603 6183.77,274.597 6184.15,274.589C6184.16,274.589 6184.17,274.59 6184.18,274.59C6184.2,274.59 6184.21,274.588 6184.23,274.588C6204.3,274.114 6222.53,262.564 6231.54,244.624L6231.55,244.613C6231.68,244.406 6231.78,244.187 6231.87,243.961ZM6137.05,220.3C6137.04,213.104 6138.74,206.007 6141.99,199.59L6147.43,214.116C6148.43,216.782 6150.72,218.761 6153.5,219.352L6162.7,221.328C6163.95,221.598 6165.02,222.435 6165.58,223.592L6166.68,225.862C6168.07,228.74 6171,230.576 6174.2,230.576L6174.78,230.576L6170.76,239.592C6169.4,242.637 6169.99,246.217 6172.26,248.664L6180.64,257.729C6181.54,258.704 6181.92,260.054 6181.67,261.358L6180.73,266.193C6156.42,264.964 6137.08,244.642 6137.05,220.3ZM6228.95,220.3C6228.95,225.775 6227.98,231.205 6226.06,236.334L6201.83,221.432C6200.84,220.82 6199.73,220.424 6198.57,220.27L6186.66,218.664C6183.54,218.259 6180.45,219.636 6178.66,222.222L6174.2,222.222L6172.21,218.118C6171.09,215.802 6168.96,214.129 6166.44,213.589L6163.02,212.852L6164.33,209.732C6164.98,208.186 6166.5,207.176 6168.18,207.176L6176.55,207.176C6177.97,207.175 6179.36,206.817 6180.59,206.135L6186.99,202.605C6187.55,202.294 6188.07,201.919 6188.55,201.488L6202.6,188.781C6205.07,186.563 6205.99,183.067 6204.91,179.924C6216.75,186.353 6225.03,197.585 6227.87,210.441C6228.58,213.643 6228.95,216.946 6228.95,220.3Z" style="fill:rgb(0,123,69);"/>
            </g>
        </g>
    </g>
</svg>
