<?xml version="1.0" encoding="UTF-8" standalone="no"?>
<!DOCTYPE svg PUBLIC "-//W3C//DTD SVG 1.1//EN" "http://www.w3.org/Graphics/SVG/1.1/DTD/svg11.dtd">
<svg width="100%" height="100%" viewBox="0 0 385 270" version="1.1" xmlns="http://www.w3.org/2000/svg" xmlns:xlink="http://www.w3.org/1999/xlink" xml:space="preserve" xmlns:serif="http://www.serif.com/" style="fill-rule:evenodd;clip-rule:evenodd;stroke-linejoin:round;stroke-miterlimit:2;">
    <g transform="matrix(1,0,0,1,-798.01,-466.957)">
        <g transform="matrix(1,0,0,1,-76,-76)">
            <g transform="matrix(0.832295,0.554333,-0.554333,0.832295,567.888,-355.621)">
                <g transform="matrix(50,0,0,50,871.68,760.739)">
                    <path d="M0.506,-0.362C0.547,-0.353 0.58,-0.332 0.605,-0.301C0.629,-0.269 0.641,-0.233 0.641,-0.192C0.641,-0.132 0.62,-0.085 0.579,-0.051C0.538,-0.017 0.48,-0 0.405,-0L0.056,-0L0.056,-0.705L0.394,-0.705C0.466,-0.705 0.523,-0.689 0.564,-0.657C0.605,-0.625 0.625,-0.58 0.625,-0.522C0.625,-0.481 0.614,-0.446 0.593,-0.419C0.571,-0.391 0.542,-0.372 0.506,-0.362ZM0.252,-0.425L0.351,-0.425C0.4,-0.425 0.425,-0.445 0.425,-0.486C0.425,-0.528 0.4,-0.549 0.351,-0.549L0.252,-0.549L0.252,-0.425ZM0.366,-0.158C0.415,-0.158 0.44,-0.179 0.44,-0.22C0.44,-0.241 0.434,-0.258 0.421,-0.269C0.407,-0.28 0.389,-0.286 0.365,-0.286L0.252,-0.286L0.252,-0.158L0.366,-0.158Z" style="fill-rule:nonzero;"/>
                </g>
            </g>
            <g transform="matrix(0.889415,0.457101,-0.457101,0.889415,456.289,-325.937)">
                <g transform="matrix(50,0,0,50,901.77,780.062)">
                    <path d="M0.155,-0.613C0.12,-0.613 0.093,-0.623 0.071,-0.642C0.051,-0.661 0.04,-0.684 0.04,-0.713C0.04,-0.742 0.051,-0.767 0.071,-0.786C0.093,-0.805 0.12,-0.815 0.155,-0.815C0.189,-0.815 0.217,-0.805 0.237,-0.786C0.259,-0.767 0.269,-0.742 0.269,-0.713C0.269,-0.684 0.259,-0.661 0.237,-0.642C0.217,-0.623 0.189,-0.613 0.155,-0.613ZM0.252,-0.561L0.252,-0L0.056,-0L0.056,-0.561L0.252,-0.561Z" style="fill-rule:nonzero;"/>
                </g>
            </g>
            <g transform="matrix(0.935317,0.35381,-0.35381,0.935317,338.276,-273.527)">
                <g transform="matrix(50,0,0,50,917.223,788.41)">
                    <path d="M0.263,-0.568C0.301,-0.568 0.334,-0.56 0.363,-0.545C0.391,-0.53 0.413,-0.509 0.428,-0.483L0.428,-0.561L0.624,-0.561L0.624,-0.006C0.624,0.047 0.614,0.094 0.594,0.136C0.574,0.179 0.543,0.213 0.5,0.238C0.458,0.263 0.405,0.276 0.34,0.276C0.253,0.276 0.184,0.256 0.132,0.215C0.08,0.174 0.05,0.119 0.043,0.049L0.236,0.049C0.24,0.067 0.25,0.081 0.266,0.091C0.282,0.101 0.303,0.106 0.328,0.106C0.395,0.106 0.428,0.069 0.428,-0.006L0.428,-0.078C0.413,-0.052 0.391,-0.031 0.363,-0.016C0.334,-0.001 0.301,0.007 0.263,0.007C0.218,0.007 0.178,-0.005 0.141,-0.028C0.105,-0.051 0.077,-0.085 0.056,-0.129C0.035,-0.172 0.024,-0.223 0.024,-0.281C0.024,-0.339 0.035,-0.39 0.056,-0.433C0.077,-0.476 0.105,-0.51 0.141,-0.533C0.178,-0.556 0.218,-0.568 0.263,-0.568ZM0.428,-0.281C0.428,-0.317 0.418,-0.345 0.399,-0.366C0.379,-0.387 0.355,-0.397 0.326,-0.397C0.297,-0.397 0.272,-0.387 0.253,-0.367C0.234,-0.346 0.224,-0.318 0.224,-0.281C0.224,-0.245 0.234,-0.217 0.253,-0.196C0.272,-0.174 0.297,-0.164 0.326,-0.164C0.355,-0.164 0.379,-0.174 0.399,-0.195C0.418,-0.216 0.428,-0.244 0.428,-0.281Z" style="fill-rule:nonzero;"/>
                </g>
            </g>
            <g transform="matrix(0.995028,0.0995931,-0.0995931,0.995028,85.1328,-93.0073)">
                <g transform="matrix(50,0,0,50,974.118,806.177)">
                    <path d="M0.613,-0.47C0.613,-0.427 0.603,-0.389 0.584,-0.354C0.564,-0.319 0.534,-0.291 0.495,-0.27C0.455,-0.249 0.406,-0.238 0.349,-0.238L0.252,-0.238L0.252,-0L0.056,-0L0.056,-0.705L0.349,-0.705C0.406,-0.705 0.454,-0.695 0.494,-0.675C0.533,-0.655 0.563,-0.627 0.583,-0.592C0.603,-0.557 0.613,-0.516 0.613,-0.47ZM0.33,-0.394C0.385,-0.394 0.413,-0.419 0.413,-0.47C0.413,-0.521 0.385,-0.547 0.33,-0.547L0.252,-0.547L0.252,-0.394L0.33,-0.394Z" style="fill-rule:nonzero;"/>
                </g>
            </g>
            <g transform="matrix(0.999977,-0.00673888,0.00673888,0.999977,-5.42918,6.81023)">
                <g transform="matrix(50,0,0,50,1007.86,809.047)">
                    <path d="M0.155,-0.613C0.12,-0.613 0.093,-0.623 0.071,-0.642C0.051,-0.661 0.04,-0.684 0.04,-0.713C0.04,-0.742 0.051,-0.767 0.071,-0.786C0.093,-0.805 0.12,-0.815 0.155,-0.815C0.189,-0.815 0.217,-0.805 0.237,-0.786C0.259,-0.767 0.269,-0.742 0.269,-0.713C0.269,-0.684 0.259,-0.661 0.237,-0.642C0.217,-0.623 0.189,-0.613 0.155,-0.613ZM0.252,-0.561L0.252,-0L0.056,-0L0.056,-0.561L0.252,-0.561Z" style="fill-rule:nonzero;"/>
                </g>
            </g>
            <g transform="matrix(0.993512,-0.113725,0.113725,0.993512,-85.3748,121.87)">
                <g transform="matrix(50,0,0,50,1025.46,809.215)">
                    <path d="M0.024,-0.281C0.024,-0.339 0.036,-0.39 0.06,-0.433C0.084,-0.476 0.117,-0.51 0.161,-0.533C0.203,-0.556 0.253,-0.568 0.308,-0.568C0.379,-0.568 0.439,-0.549 0.488,-0.509C0.537,-0.47 0.568,-0.416 0.582,-0.346L0.374,-0.346C0.362,-0.383 0.339,-0.401 0.304,-0.401C0.279,-0.401 0.26,-0.391 0.246,-0.371C0.231,-0.35 0.224,-0.32 0.224,-0.281C0.224,-0.242 0.231,-0.212 0.246,-0.191C0.26,-0.17 0.279,-0.16 0.304,-0.16C0.339,-0.16 0.363,-0.178 0.374,-0.215L0.582,-0.215C0.568,-0.146 0.537,-0.091 0.488,-0.052C0.439,-0.013 0.379,0.007 0.308,0.007C0.253,0.007 0.203,-0.005 0.161,-0.028C0.117,-0.051 0.084,-0.085 0.06,-0.128C0.036,-0.171 0.024,-0.222 0.024,-0.281Z" style="fill-rule:nonzero;"/>
                </g>
            </g>
            <g transform="matrix(0.972808,-0.231613,0.231613,0.972808,-157.703,266.885)">
                <g transform="matrix(50,0,0,50,1057.77,805.078)">
                    <path d="M0.387,-0.167L0.387,-0L0.302,-0C0.159,-0 0.087,-0.071 0.087,-0.213L0.087,-0.398L0.018,-0.398L0.018,-0.561L0.087,-0.561L0.087,-0.697L0.284,-0.697L0.284,-0.561L0.386,-0.561L0.386,-0.398L0.284,-0.398L0.284,-0.21C0.284,-0.195 0.288,-0.184 0.295,-0.177C0.302,-0.17 0.313,-0.167 0.33,-0.167L0.387,-0.167Z" style="fill-rule:nonzero;"/>
                </g>
            </g>
            <g transform="matrix(0.934087,-0.357046,0.357046,0.934087,-214.403,438.494)">
                <g transform="matrix(50,0,0,50,1080.44,799.947)">
                    <path d="M0.63,-0.561L0.63,-0L0.433,-0L0.433,-0.08C0.416,-0.055 0.393,-0.034 0.364,-0.019C0.335,-0.003 0.301,0.005 0.263,0.005C0.198,0.005 0.146,-0.017 0.109,-0.059C0.071,-0.102 0.052,-0.161 0.052,-0.235L0.052,-0.561L0.247,-0.561L0.247,-0.26C0.247,-0.228 0.256,-0.203 0.273,-0.185C0.29,-0.166 0.312,-0.157 0.34,-0.157C0.369,-0.157 0.391,-0.166 0.408,-0.185C0.425,-0.203 0.433,-0.228 0.433,-0.26L0.433,-0.561L0.63,-0.561Z" style="fill-rule:nonzero;"/>
                </g>
            </g>
            <g transform="matrix(0.87643,-0.481529,0.481529,0.87643,-241.025,633.742)">
                <g transform="matrix(50,0,0,50,1114.28,786.487)">
                    <path d="M0.252,-0.462C0.274,-0.494 0.301,-0.519 0.332,-0.538C0.363,-0.557 0.397,-0.566 0.433,-0.566L0.433,-0.357L0.378,-0.357C0.335,-0.357 0.304,-0.349 0.283,-0.332C0.262,-0.315 0.252,-0.286 0.252,-0.245L0.252,-0L0.056,-0L0.056,-0.561L0.252,-0.561L0.252,-0.462Z" style="fill-rule:nonzero;"/>
                </g>
            </g>
            <g transform="matrix(0.812685,-0.582703,0.582703,0.812685,-238.727,807.015)">
                <g transform="matrix(50,0,0,50,1135.88,774.827)">
                    <path d="M0.592,-0.287C0.592,-0.272 0.591,-0.256 0.589,-0.241L0.218,-0.241C0.22,-0.21 0.229,-0.188 0.244,-0.172C0.259,-0.158 0.278,-0.15 0.301,-0.15C0.334,-0.15 0.357,-0.165 0.371,-0.194L0.58,-0.194C0.571,-0.155 0.555,-0.121 0.53,-0.091C0.504,-0.06 0.473,-0.036 0.435,-0.019C0.397,-0.002 0.355,0.007 0.309,0.007C0.254,0.007 0.204,-0.005 0.162,-0.028C0.118,-0.051 0.085,-0.085 0.061,-0.128C0.036,-0.171 0.024,-0.222 0.024,-0.281C0.024,-0.34 0.036,-0.391 0.06,-0.434C0.084,-0.476 0.117,-0.51 0.161,-0.533C0.203,-0.556 0.253,-0.568 0.309,-0.568C0.364,-0.568 0.413,-0.557 0.456,-0.534C0.499,-0.511 0.532,-0.479 0.556,-0.437C0.58,-0.394 0.592,-0.344 0.592,-0.287ZM0.392,-0.336C0.392,-0.36 0.384,-0.379 0.368,-0.393C0.352,-0.406 0.332,-0.413 0.308,-0.413C0.284,-0.413 0.264,-0.406 0.249,-0.394C0.234,-0.381 0.224,-0.361 0.219,-0.336L0.392,-0.336Z" style="fill-rule:nonzero;"/>
                </g>
            </g>
            <g transform="matrix(0.637725,-0.770264,0.770264,0.637725,-142.257,1176.87)">
                <g transform="matrix(50,0,0,50,1180,739.669)">
                    <path d="M0.032,-0.354C0.032,-0.423 0.047,-0.485 0.076,-0.54C0.105,-0.594 0.146,-0.636 0.199,-0.667C0.252,-0.697 0.314,-0.712 0.383,-0.712C0.471,-0.712 0.545,-0.689 0.605,-0.642C0.665,-0.595 0.704,-0.531 0.721,-0.45L0.51,-0.45C0.497,-0.477 0.48,-0.497 0.458,-0.511C0.435,-0.525 0.409,-0.532 0.38,-0.532C0.335,-0.532 0.299,-0.516 0.272,-0.484C0.245,-0.451 0.231,-0.408 0.231,-0.354C0.231,-0.299 0.245,-0.256 0.272,-0.224C0.299,-0.191 0.335,-0.175 0.38,-0.175C0.409,-0.175 0.435,-0.182 0.458,-0.196C0.48,-0.21 0.497,-0.23 0.51,-0.257L0.721,-0.257C0.704,-0.176 0.665,-0.113 0.605,-0.066C0.545,-0.019 0.471,0.005 0.383,0.005C0.314,0.005 0.252,-0.01 0.199,-0.041C0.146,-0.071 0.105,-0.113 0.076,-0.168C0.047,-0.222 0.032,-0.284 0.032,-0.354Z" style="fill-rule:nonzero;"/>
                </g>
            </g>
            <g transform="matrix(0.506821,-0.862051,0.862051,0.506821,-16.4023,1388.4)">
                <g transform="matrix(50,0,0,50,1205.22,708.534)">
                    <path d="M0.317,0.007C0.261,0.007 0.211,-0.005 0.167,-0.028C0.122,-0.051 0.087,-0.085 0.062,-0.128C0.037,-0.171 0.024,-0.222 0.024,-0.281C0.024,-0.339 0.037,-0.39 0.063,-0.433C0.088,-0.476 0.123,-0.51 0.168,-0.533C0.212,-0.556 0.262,-0.568 0.318,-0.568C0.374,-0.568 0.424,-0.556 0.469,-0.533C0.513,-0.51 0.548,-0.476 0.574,-0.433C0.599,-0.39 0.612,-0.339 0.612,-0.281C0.612,-0.223 0.599,-0.172 0.574,-0.129C0.548,-0.085 0.513,-0.051 0.468,-0.028C0.423,-0.005 0.373,0.007 0.317,0.007ZM0.317,-0.163C0.344,-0.163 0.367,-0.173 0.386,-0.194C0.404,-0.214 0.413,-0.243 0.413,-0.281C0.413,-0.319 0.404,-0.348 0.386,-0.368C0.367,-0.388 0.345,-0.398 0.318,-0.398C0.291,-0.398 0.269,-0.388 0.251,-0.368C0.233,-0.348 0.224,-0.319 0.224,-0.281C0.224,-0.242 0.233,-0.213 0.25,-0.193C0.267,-0.173 0.29,-0.163 0.317,-0.163Z" style="fill-rule:nonzero;"/>
                </g>
            </g>
            <g transform="matrix(0.373137,-0.927776,0.927776,0.373137,136.216,1559.78)">
                <g transform="matrix(50,0,0,50,1222.37,679.088)">
                    <path d="M0.024,-0.281C0.024,-0.339 0.035,-0.39 0.056,-0.433C0.077,-0.476 0.105,-0.51 0.142,-0.533C0.179,-0.556 0.219,-0.568 0.264,-0.568C0.3,-0.568 0.332,-0.561 0.361,-0.546C0.389,-0.531 0.411,-0.51 0.427,-0.484L0.427,-0.74L0.624,-0.74L0.624,-0L0.427,-0L0.427,-0.078C0.412,-0.052 0.39,-0.031 0.362,-0.016C0.334,-0.001 0.301,0.007 0.263,0.007C0.218,0.007 0.178,-0.005 0.141,-0.028C0.105,-0.051 0.077,-0.085 0.056,-0.129C0.035,-0.172 0.024,-0.223 0.024,-0.281ZM0.428,-0.281C0.428,-0.317 0.418,-0.345 0.399,-0.366C0.379,-0.387 0.355,-0.397 0.326,-0.397C0.297,-0.397 0.272,-0.387 0.253,-0.367C0.234,-0.346 0.224,-0.318 0.224,-0.281C0.224,-0.245 0.234,-0.217 0.253,-0.196C0.272,-0.174 0.297,-0.164 0.326,-0.164C0.355,-0.164 0.379,-0.174 0.399,-0.195C0.418,-0.216 0.428,-0.244 0.428,-0.281Z" style="fill-rule:nonzero;"/>
                </g>
            </g>
            <g transform="matrix(0.258823,-0.965925,0.965925,0.258823,292.137,1671.37)">
                <g transform="matrix(50,0,0,50,1235.16,645.321)">
                    <path d="M0.155,-0.613C0.12,-0.613 0.093,-0.623 0.071,-0.642C0.051,-0.661 0.04,-0.684 0.04,-0.713C0.04,-0.742 0.051,-0.767 0.071,-0.786C0.093,-0.805 0.12,-0.815 0.155,-0.815C0.189,-0.815 0.217,-0.805 0.237,-0.786C0.259,-0.767 0.269,-0.742 0.269,-0.713C0.269,-0.684 0.259,-0.661 0.237,-0.642C0.217,-0.623 0.189,-0.613 0.155,-0.613ZM0.252,-0.561L0.252,-0L0.056,-0L0.056,-0.561L0.252,-0.561Z" style="fill-rule:nonzero;"/>
                </g>
            </g>
            <g transform="matrix(0.143433,-0.98966,0.98966,0.143433,440.314,1765.6)">
                <g transform="matrix(50,0,0,50,1240.13,628.437)">
                    <path d="M0.423,-0.566C0.488,-0.566 0.539,-0.545 0.577,-0.501C0.615,-0.459 0.634,-0.4 0.634,-0.327L0.634,-0L0.438,-0L0.438,-0.301C0.438,-0.333 0.43,-0.358 0.413,-0.377C0.396,-0.395 0.374,-0.404 0.346,-0.404C0.317,-0.404 0.294,-0.395 0.277,-0.377C0.26,-0.358 0.252,-0.333 0.252,-0.301L0.252,-0L0.056,-0L0.056,-0.561L0.252,-0.561L0.252,-0.481C0.269,-0.506 0.293,-0.527 0.322,-0.543C0.351,-0.558 0.385,-0.566 0.423,-0.566Z" style="fill-rule:nonzero;"/>
                </g>
            </g>
            <g transform="matrix(-0.00832438,-0.999965,0.999965,-0.00832438,663.272,1842.25)">
                <g transform="matrix(50,0,0,50,1245.13,592.24)">
                    <path d="M0.263,-0.568C0.301,-0.568 0.334,-0.56 0.363,-0.545C0.391,-0.53 0.413,-0.509 0.428,-0.483L0.428,-0.561L0.624,-0.561L0.624,-0.006C0.624,0.047 0.614,0.094 0.594,0.136C0.574,0.179 0.543,0.213 0.5,0.238C0.458,0.263 0.405,0.276 0.34,0.276C0.253,0.276 0.184,0.256 0.132,0.215C0.08,0.174 0.05,0.119 0.043,0.049L0.236,0.049C0.24,0.067 0.25,0.081 0.266,0.091C0.282,0.101 0.303,0.106 0.328,0.106C0.395,0.106 0.428,0.069 0.428,-0.006L0.428,-0.078C0.413,-0.052 0.391,-0.031 0.363,-0.016C0.334,-0.001 0.301,0.007 0.263,0.007C0.218,0.007 0.178,-0.005 0.141,-0.028C0.105,-0.051 0.077,-0.085 0.056,-0.129C0.035,-0.172 0.024,-0.223 0.024,-0.281C0.024,-0.339 0.035,-0.39 0.056,-0.433C0.077,-0.476 0.105,-0.51 0.141,-0.533C0.178,-0.556 0.218,-0.568 0.263,-0.568ZM0.428,-0.281C0.428,-0.317 0.418,-0.345 0.399,-0.366C0.379,-0.387 0.355,-0.397 0.326,-0.397C0.297,-0.397 0.272,-0.387 0.253,-0.367C0.234,-0.346 0.224,-0.318 0.224,-0.281C0.224,-0.245 0.234,-0.217 0.253,-0.196C0.272,-0.174 0.297,-0.164 0.326,-0.164C0.355,-0.164 0.379,-0.174 0.399,-0.195C0.418,-0.216 0.428,-0.244 0.428,-0.281Z" style="fill-rule:nonzero;"/>
                </g>
            </g>
            <g transform="matrix(-0.125864,-0.992047,0.992047,-0.125864,848.96,1860.36)">
                <g transform="matrix(50,0,0,50,1244.1,556.152)">
                    <path d="M0.151,0.008C0.116,0.008 0.089,-0.002 0.068,-0.021C0.047,-0.04 0.036,-0.064 0.036,-0.093C0.036,-0.122 0.047,-0.147 0.068,-0.166C0.089,-0.185 0.116,-0.195 0.151,-0.195C0.185,-0.195 0.213,-0.185 0.234,-0.166C0.255,-0.147 0.265,-0.122 0.265,-0.093C0.265,-0.064 0.255,-0.04 0.234,-0.021C0.213,-0.002 0.185,0.008 0.151,0.008Z" style="fill-rule:nonzero;"/>
                </g>
            </g>
        </g>
    </g>
</svg>
