<?xml version="1.0" encoding="UTF-8" standalone="no"?>
<!DOCTYPE svg PUBLIC "-//W3C//DTD SVG 1.1//EN" "http://www.w3.org/Graphics/SVG/1.1/DTD/svg11.dtd">
<svg width="100%" height="100%" viewBox="0 0 396 489" version="1.1" xmlns="http://www.w3.org/2000/svg" xmlns:xlink="http://www.w3.org/1999/xlink" xml:space="preserve" xmlns:serif="http://www.serif.com/" style="fill-rule:evenodd;clip-rule:evenodd;stroke-linejoin:round;stroke-miterlimit:2;">
    <g transform="matrix(1,0,0,1,-10081.7,-263.407)">
        <g transform="matrix(1,0,0,1.61359,7587,118)">
            <g id="Steampunkey" transform="matrix(1,0,0,1,-1105.88,-893.294)">
                <g id="Head" transform="matrix(1,0,0,0.619736,-5496,-73.1289)">
                    <path d="M9154.16,1949.89C9154.11,1941.2 9154.2,1932.71 9154.42,1924.58C9154.48,1920.48 9163.27,1904.03 9166.19,1906.64C9177.6,1916.87 9191.72,1919.36 9208.1,1919.95C9186.07,1931.16 9170.96,1950.01 9170.96,1976.4C9170.96,2006.79 9191,2032.54 9218.57,2041.16C9202.09,2055.15 9192.05,2073.7 9192.05,2094.05C9192.05,2137.57 9237.99,2172.9 9294.58,2172.9C9351.17,2172.9 9397.11,2137.57 9397.11,2094.05C9397.11,2073.63 9386.99,2055.01 9370.41,2041C9397.74,2032.24 9417.53,2006.61 9417.53,1976.4C9417.53,1967.42 9415.79,1958.86 9412.62,1951.01L9412.13,1949.83L9411.61,1948.66L9411.07,1947.49C9406.05,1936.85 9398.33,1927.72 9388.81,1920.99L9387.79,1920.28L9386.75,1919.58L9385.7,1918.91L9384.63,1918.25L9383.81,1917.77L9383.01,1917.3L9381.91,1916.7L9380.81,1916.12L9379.69,1915.55L9378.56,1915.01L9377.42,1914.48L9376.48,1914.07L9375.34,1913.59L9374.49,1913.25L9373.91,1913.02L9373.02,1912.69L9372.12,1912.37L9370.93,1911.96L9369.72,1911.58L9368.43,1911.19L9367.2,1910.85L9365.95,1910.53L9364.38,1910.17L9363.12,1909.9L9361.85,1909.66L9360.24,1909.39L9358.95,1909.2L9357.65,1909.03L9356.34,1908.89L9354.7,1908.75L9353.38,1908.67L9352.05,1908.61L9350.71,1908.58L9349.71,1908.57C9326.8,1908.57 9306.53,1919.95 9294.25,1937.36C9287.22,1927.41 9277.59,1922.46 9266.34,1917.45C9286.38,1915.02 9310.24,1906.06 9363.74,1891.59C9370.58,1889.74 9388.03,1868.56 9394.09,1871.31C9396.75,1872.52 9399.28,1873.96 9401.66,1875.62C9409.94,1881.37 9420.38,1893.56 9426.76,1906.28C9437.61,1921.53 9452.83,1919.58 9468.2,1915.96C9462,1927.47 9451.74,1939.31 9439.84,1947.88C9450.1,1944.27 9458.66,1945.65 9467.53,1951.76C9488.08,1970.52 9494.46,1988.93 9492.09,2014.35C9487.37,2041.91 9469.36,2068.04 9456.36,2073.52C9445.74,2078 9441.59,2077.48 9436.27,2075.75C9459.91,2061.15 9473.5,2042.27 9471.99,2014.35C9471.24,1999.38 9468.61,1986.56 9460.83,1975.28C9454.13,1966.23 9441.88,1976.17 9440.73,1986.44C9441.45,2000.15 9441.3,2005.42 9438.5,2011.01C9436.95,2014.11 9433.64,2015.71 9430.23,2017.12C9429.63,2026.05 9428.93,2034.84 9428.16,2043.34C9438.55,2033.7 9448.41,2018.97 9453.11,2006.62C9451.68,2028.52 9444.83,2048.62 9429.53,2065.91C9427.98,2067.34 9426.57,2069.2 9425.27,2070.67C9424.95,2073.3 9424.63,2075.86 9424.29,2078.37C9430.44,2071.71 9437.8,2064.82 9437.8,2064.82C9437.8,2064.82 9420.82,2099.75 9421.65,2096.25L9421.63,2096.26C9421.59,2096.52 9421.54,2096.78 9421.5,2097.03C9427.68,2093.4 9436.63,2091.68 9450.38,2093.76C9417.17,2123.34 9413.97,2136.05 9400.9,2148.39C9395.67,2153.34 9386.4,2161.33 9379.73,2165.64C9378.52,2166.6 9377.3,2167.52 9376.07,2168.41C9355.05,2183.67 9322.11,2192.97 9294.58,2192.97C9267.04,2192.97 9232.25,2183.67 9210.85,2168.41C9209.84,2167.69 9208.83,2166.94 9207.83,2166.17C9201.32,2162.23 9188.53,2150 9181.75,2143.21C9169.75,2131.22 9156.1,2105.52 9139.76,2094.91C9152.59,2095.7 9160.76,2098.06 9166.15,2101.18C9165.7,2098.68 9165.25,2096.07 9164.81,2093.34C9161.76,2086.27 9155.23,2069.88 9155.23,2069.88C9155.23,2069.88 9158.74,2073.21 9162.46,2077.11C9162.06,2074.03 9161.66,2070.86 9161.28,2067.62C9160.75,2067.02 9160.2,2066.44 9159.63,2065.91C9144.33,2048.62 9137.48,2028.52 9136.05,2006.62C9140.4,2018.07 9149.19,2032.85 9158.73,2043.06C9157.94,2034.33 9157.23,2025.29 9156.62,2016.1C9154.09,2014.9 9151.85,2013.4 9150.66,2011.01C9147.86,2005.42 9147.71,2000.15 9148.42,1986.44C9147.27,1976.17 9135.03,1966.23 9128.33,1975.28C9120.55,1986.56 9117.92,1999.38 9117.17,2014.35C9115.66,2042.27 9129.25,2061.15 9152.89,2075.75C9147.56,2077.48 9143.42,2078 9132.79,2073.52C9119.79,2068.04 9101.79,2041.91 9097.07,2014.35C9094.69,1988.93 9101.08,1970.52 9121.63,1951.76C9131.86,1944.72 9141.67,1943.96 9154.16,1949.89Z"/>
                </g>
                <g id="Mouth" transform="matrix(3.53285,0,0,2.18943,-33050.6,-2284.19)">
                    <path d="M10447.9,1599.18C10445.5,1598.9 10448,1604.06 10443.2,1607C10439,1609.56 10428.2,1610.17 10416.8,1607.53C10416,1607.34 10415.1,1607.6 10414.8,1608.41C10414.4,1609.22 10414.8,1610.14 10415.6,1610.47C10420.3,1613.35 10439.3,1613.15 10444.1,1610.64C10449.9,1607.59 10451.9,1599.63 10447.9,1599.18Z"/>
                </g>
                <g id="Chin-line" serif:id="Chin line" transform="matrix(1.01235,0,0,0.62739,-2922.92,574.79)">
                    <path d="M6617.84,1097.76C6626.29,1101.33 6645.13,1105.32 6661.41,1096.65C6662.87,1095.87 6663.43,1094.05 6662.65,1092.59C6661.87,1091.13 6660.05,1090.57 6658.59,1091.35C6644.24,1099 6627.62,1095.38 6620.16,1092.24C6618.64,1091.59 6616.88,1092.31 6616.24,1093.84C6615.59,1095.36 6616.31,1097.12 6617.84,1097.76Z"/>
                </g>
                <g id="Cheek-line" serif:id="Cheek line" transform="matrix(0.00198895,-0.382552,0.617282,0.00123262,3194.92,3762.51)">
                    <path d="M6616.93,1099.9C6625.78,1103.63 6645.48,1107.76 6662.5,1098.69C6665.09,1097.32 6666.08,1094.09 6664.69,1091.5C6663.32,1088.91 6660.09,1087.92 6657.5,1089.31C6643.89,1096.55 6628.14,1093.08 6621.07,1090.1C6618.36,1088.96 6615.24,1090.23 6614.1,1092.93C6612.96,1095.64 6614.23,1098.76 6616.93,1099.9Z"/>
                </g>
                <g id="Nose" transform="matrix(1,0,0,0.619736,-5496,-73.1289)">
                    <path d="M9291.03,2062.85C9289.86,2068.43 9288.55,2080.85 9291.41,2091.57C9291.87,2093.32 9293.67,2094.37 9295.42,2093.9C9297.18,2093.43 9298.22,2091.63 9297.75,2089.88C9295.2,2080.29 9296.41,2069.19 9297.46,2064.2C9297.83,2062.43 9296.7,2060.69 9294.92,2060.32C9293.15,2059.94 9291.41,2061.08 9291.03,2062.85ZM9298.94,2057.72C9306.02,2050.7 9312.63,2039.55 9325.93,2037.12C9330.11,2036.36 9334.13,2039.14 9334.9,2043.33C9335.66,2047.51 9332.88,2051.53 9328.69,2052.29C9315.4,2054.72 9309.1,2051.86 9298.94,2057.72ZM9290.22,2057.72C9283.13,2050.7 9276.52,2039.55 9263.23,2037.12C9259.04,2036.36 9255.02,2039.14 9254.26,2043.33C9253.5,2047.51 9256.28,2051.53 9260.46,2052.29C9273.76,2054.72 9280.06,2051.86 9290.22,2057.72Z"/>
                </g>
                <g id="Gear-Compass-Eye" serif:id="Gear Compass Eye" transform="matrix(1,0,0,0.619736,-5496,-73.1289)">
                    <path d="M9360.84,1926.01C9355.85,1925.28 9350.78,1925.28 9345.8,1926.01L9343.23,1933.9C9338.44,1935.01 9333.86,1936.91 9329.68,1939.51L9322.29,1935.74C9318.24,1938.75 9314.66,1942.34 9311.65,1946.38L9315.42,1953.78C9312.81,1957.95 9310.92,1962.53 9309.81,1967.33L9301.91,1969.89C9301.18,1974.88 9301.18,1979.94 9301.91,1984.93L9309.81,1987.5C9310.92,1992.29 9312.81,1996.87 9315.42,2001.05L9311.65,2008.44C9314.66,2012.48 9318.24,2016.07 9322.29,2019.08L9329.68,2015.31C9333.86,2017.91 9338.44,2019.81 9343.23,2020.92L9345.8,2028.82C9350.78,2029.55 9355.85,2029.55 9360.84,2028.82L9363.4,2020.92C9368.2,2019.81 9372.78,2017.91 9376.95,2015.31L9384.35,2019.08C9388.39,2016.07 9391.97,2012.48 9394.99,2008.44L9391.22,2001.05C9393.82,1996.87 9395.72,1992.29 9396.83,1987.5L9404.72,1984.93C9405.45,1979.94 9405.45,1974.88 9404.72,1969.89L9396.83,1967.33C9395.72,1962.53 9393.82,1957.95 9391.22,1953.78L9394.99,1946.38C9391.97,1942.34 9388.39,1938.75 9384.35,1935.74L9376.95,1939.51C9372.78,1936.91 9368.2,1935.01 9363.4,1933.9L9360.84,1926.01ZM9374.08,1956.64L9361.62,1985.72L9332.55,1998.18L9345.01,1969.1L9374.08,1956.64Z"/>
                </g>
                <g id="Left-Eye" serif:id="Left Eye" transform="matrix(1,0,0,0.619736,-5496,-73.1289)">
                    <path d="M9235.84,1925.46C9264.51,1925.46 9287.79,1948.74 9287.79,1977.41C9287.79,2006.08 9264.51,2029.36 9235.84,2029.36C9207.17,2029.36 9183.89,2006.08 9183.89,1977.41C9183.89,1948.74 9207.17,1925.46 9235.84,1925.46ZM9235.84,1930.14C9261.93,1930.14 9283.11,1951.32 9283.11,1977.41C9283.11,2003.5 9261.93,2024.68 9235.84,2024.68C9209.75,2024.68 9188.57,2003.5 9188.57,1977.41C9188.57,1951.32 9209.75,1930.14 9235.84,1930.14ZM9235.84,1932.72C9260.5,1932.72 9280.53,1952.75 9280.53,1977.41C9280.53,2002.07 9260.5,2022.1 9235.84,2022.1C9211.18,2022.1 9191.15,2002.07 9191.15,1977.41C9191.15,1952.75 9211.18,1932.72 9235.84,1932.72ZM9230.27,2004.8L9244.82,1990.25C9245.76,1989.31 9245.76,1987.78 9244.82,1986.84C9243.88,1985.89 9242.35,1985.89 9241.41,1986.84L9226.86,2001.39C9225.92,2002.33 9225.92,2003.86 9226.86,2004.8C9227.8,2005.74 9229.33,2005.74 9230.27,2004.8ZM9222.93,1997.46L9252.16,1968.24C9253.1,1967.3 9253.1,1965.77 9252.16,1964.82C9251.22,1963.88 9249.69,1963.88 9248.75,1964.82L9219.52,1994.05C9218.58,1994.99 9218.58,1996.52 9219.52,1997.46C9220.46,1998.4 9221.99,1998.4 9222.93,1997.46Z"/>
                </g>
                <g id="Hat" transform="matrix(1.20273,0.0424286,-0.0684624,0.745374,-2660.74,280.838)">
                    <path d="M5483.21,756.936C5518.22,756.062 5542.11,761.425 5544.52,772.69C5548.61,791.804 5489.31,820.719 5412.17,837.221C5335.03,853.722 5269.08,851.601 5264.99,832.486C5262.64,821.488 5281.28,807.245 5312.23,793.988C5313.69,799.022 5315.22,804.393 5316.23,808.235C5377.93,818.768 5434.09,804.358 5485.94,770.529C5485.11,766.859 5484.13,761.867 5483.21,756.936ZM5308.08,779.958C5298.89,750.664 5287.53,721.852 5274.33,693.451C5272.1,688.688 5273.62,683.015 5277.92,680C5334.91,640.454 5397.71,627.107 5465.93,638.163C5471.28,639.05 5475.14,643.762 5474.97,649.181C5474.07,679.674 5475.61,709.628 5480.01,738.948L5480.01,738.936C5422.69,772.475 5365.38,785.258 5308.07,779.918L5308.08,779.958Z"/>
                </g>
            </g>
        </g>
    </g>
</svg>
